<?xml version="1.0" encoding="UTF-8"?>
<svg width="120px" height="120px" viewBox="0 0 120 120" version="1.1" xmlns="http://www.w3.org/2000/svg" xmlns:xlink="http://www.w3.org/1999/xlink">
    <title>2</title>
    <g id="2" stroke="none" stroke-width="1" fill="none" fill-rule="evenodd">
        <g id="编组" transform="translate(18.000000, 23.000000)">
            <path d="M53.8399023,59.5843741 C54.5151126,59.4405604 55.1790627,59.8713425 55.3228764,60.5465528 C55.4666901,61.2217631 55.035908,61.8857132 54.3606977,62.0295268 C53.0526194,62.3081357 51.6415912,62.5178106 50.0881117,62.6737037 C49.4012058,62.7426353 48.7884784,62.2416681 48.7195468,61.5547622 C48.6506152,60.8678563 49.1515823,60.2551289 49.8384883,60.1861972 C51.3060689,60.0389242 52.6281459,59.8424672 53.8399023,59.5843741 Z" id="Stroke-1" fill="#333333" fill-rule="nonzero"></path>
            <path d="M61.9672856,20.7480242 C65.6202985,20.5087093 69.9545534,21.836073 72.9533752,23.8352876 C78.0159737,27.2103532 81.25,31.6748973 81.25,35.7113505 C81.25,39.3072614 79.1641122,41.3992221 75.5082644,42.7755677 L75.1578653,42.9010057 C74.1609135,43.2460525 72.2648697,43.8338841 72.3442313,43.8072425 C71.6873343,44.0277622 71.3274565,44.2039391 71.2657209,44.2744812 C70.6089651,45.0250592 70.2418195,45.6925925 70.0308497,46.4370242 C69.9042946,46.8835886 69.8376031,47.2971982 69.7538693,48.0961259 L69.7305525,48.3238829 C69.5021008,50.6025564 69.2893154,51.7131065 68.5655874,53.4920403 C68.3311789,54.067309 68.0774565,54.6092666 67.8031889,55.1198596 C67.4765074,55.7280294 66.7186607,55.9562208 66.1104909,55.6295393 C65.5023211,55.3028579 65.2741296,54.5450112 65.6008111,53.9368413 C65.8324196,53.5056651 66.0487142,53.0436543 66.250152,52.5493005 C66.8257857,51.1343841 67.0145162,50.242872 67.2068271,48.4262946 L67.2430227,48.0744921 C67.3525223,46.9822973 67.4354833,46.42613 67.6255731,45.7553757 C67.9388136,44.6500702 68.4865443,43.6542023 69.3843537,42.6281344 C69.8004576,42.1526742 70.3707783,41.8508292 71.2893253,41.5264075 L71.6195953,41.4153568 L73.33349,40.8728008 C73.7918493,40.7246279 74.2346778,40.578071 74.5167854,40.4765222 L74.6274252,40.4358834 C77.4168388,39.3857311 78.75,38.0486886 78.75,35.7113505 C78.75,32.6648036 76.0035629,28.8733721 71.5666248,25.9154133 C69.0018125,24.2055385 65.2009891,23.041538 62.1307144,23.2426767 C61.4418351,23.2878063 60.8468034,22.7659441 60.8016738,22.0770648 C60.7565441,21.3881856 61.2784063,20.7931538 61.9672856,20.7480242 Z" id="Stroke-3" fill="#333333" fill-rule="nonzero"></path>
            <path d="M5.078,51.9848505 C5.99627204,51.9848505 6.88952465,52.1814545 7.70878326,52.5560456 C8.33662327,52.8431139 8.61287326,53.5847937 8.32580489,54.2126337 C8.05667829,54.8012337 7.38799089,55.0808191 6.78813202,54.876931 L6.66921674,54.8296553 C6.17451987,54.6034642 5.63560899,54.4848505 5.078,54.4848505 C2.96397248,54.4848505 1.25,56.1985898 1.25,58.3128505 C1.25,60.4271111 2.96397248,62.1408505 5.078,62.1408505 C6.48179211,62.1408505 7.74828948,61.3792405 8.41874087,60.1846452 L8.456,60.1118505 L8.46246534,60.0958111 C8.70160857,59.5052434 9.3839335,59.1089747 10.0791942,59.3846372 L10.189017,59.4338165 C10.4000078,59.5393119 10.564578,59.6905782 10.6816402,59.8695547 L10.718,59.9318505 L10.9098304,60.2224517 C11.9088622,61.6900281 13.1589725,62.9137438 14.6157147,63.8371437 L14.9555337,64.0448793 C15.5503285,64.3953226 15.7484145,65.1615894 15.3979712,65.7563842 C15.0475279,66.3511789 14.281261,66.5492649 13.6864663,66.1988216 C12.2686501,65.3634677 11.0071292,64.3005467 9.92938896,63.0474201 L9.638,62.6988505 L9.59495137,62.7460136 C8.48835292,63.8731786 6.97754144,64.5688204 5.33791819,64.6355666 L5.078,64.6408505 C1.58333673,64.6408505 -1.25,61.8078991 -1.25,58.3128505 C-1.25,54.8178018 1.58333673,51.9848505 5.078,51.9848505 Z" id="Stroke-5" fill="#333333" fill-rule="nonzero"></path>
            <path d="M23.8745988,38.6742753 C27.2638954,38.1074077 30.4134056,38.5343357 32.9639585,40.1206936 C36.6513468,42.4140141 38.952628,47.177154 38.4234601,51.4666711 C38.2923904,52.5328411 37.9947738,53.3506169 37.284824,54.7858496 L36.6473306,56.0488113 C36.0324825,57.2864772 35.7683251,58.0707743 35.7607397,58.8144295 C35.7457733,60.3379342 36.3109686,60.6073419 38.2296807,60.2491389 L38.6180407,60.1699496 C38.8192808,60.1256798 39.0341301,60.0738127 39.2761759,60.0117181 L40.253858,59.7513204 C43.6811034,58.8378026 47.5874947,60.8475446 47.0847152,64.5842502 C46.6608848,67.7455423 42.3836919,68.6471505 33.7528,68.6471505 L23.1178,68.6471505 C20.0502445,68.6471505 17.5638,66.1603069 17.5638,63.0921505 C17.5638,62.4017945 18.1234441,61.8421505 18.8138,61.8421505 C19.5041559,61.8421505 20.0638,62.4017945 20.0638,63.0921505 C20.0638,64.7796848 21.4310462,66.1471505 23.1178,66.1471505 L33.7528,66.1471505 C40.735165,66.1471505 44.4580226,65.3623931 44.6069637,64.2514632 C44.8135566,62.7160447 42.957848,61.7115797 41.0743183,62.1241317 L40.897718,62.1669869 C40.8321257,62.1844688 40.3255634,62.3210848 40.1669618,62.3630283 L39.6268692,62.5013658 C39.2888477,62.5845105 38.9886212,62.6506458 38.6884772,62.7066795 C35.4339004,63.3142741 33.2267492,62.2622071 33.260865,58.789401 C33.2724135,57.6572013 33.5876923,56.6426999 34.2494927,55.2619133 L35.0131707,53.7392137 C35.6171502,52.521804 35.8535007,51.8826545 35.9422043,51.1611068 C36.3516745,47.8418774 34.5074296,44.0247011 31.6436185,42.2435931 C29.6618351,41.0109906 27.1192231,40.66633 24.2870012,41.1400256 C23.6061031,41.2539073 22.9618066,40.7942498 22.8479249,40.1133516 C22.7340431,39.4324535 23.1937007,38.7881571 23.8745988,38.6742753 Z" id="Stroke-7" fill="#333333" fill-rule="nonzero"></path>
            <path d="M60.8100227,50.6816689 C60.9866884,50.0143005 61.6709132,49.6165074 62.3382816,49.7931731 C63.00565,49.9698389 63.4034431,50.6540637 63.2267773,51.3214321 C62.6058417,53.6670643 63.722316,57.6583291 66.2784941,59.6864566 C66.5892098,59.9330677 66.9440238,60.1622864 67.3966631,60.414806 L68.2168616,60.8486015 C68.4859056,60.9876218 68.7376132,61.1168576 68.7424281,61.1193693 L69.212256,61.3735329 C71.1632735,62.4716446 72.0118435,63.5498261 71.8086127,65.485636 C71.5652193,67.8117184 69.1787061,68.5669205 65.5478508,68.645249 C63.133782,68.6982763 60.8628009,67.4773576 59.957237,65.3860553 C59.4416973,64.1949126 58.7499985,62.8079687 57.9121862,61.2669698 C57.5526423,60.6056559 57.1691015,59.9213811 56.7647815,59.2183505 C56.008855,57.9039476 55.2088513,56.5725139 54.3999769,55.2693788 L53.3791104,53.6465636 L52.4444061,52.2020204 C52.0630701,51.6265431 52.2204527,50.8508926 52.79593,50.4695566 C53.3714074,50.0882206 54.1470578,50.2456032 54.5283939,50.8210805 L54.910009,51.4049163 C55.1507855,51.7761746 55.413404,52.1854422 55.6935194,52.6271709 L55.9068188,52.9644672 C56.9376021,54.5989507 57.9684934,56.2967479 58.9319441,57.9719934 C59.3458568,58.6917037 59.7390929,59.3932758 60.1085604,60.0728423 C60.9792571,61.6743261 61.7027346,63.1249902 62.251478,64.3928492 C62.7195642,65.4738438 64.0293391,66.1780015 65.49344,66.1458412 C67.8162367,66.0957315 69.2795795,65.6326627 69.3222322,65.2250366 C69.3966071,64.5166021 69.0821392,64.1365517 67.7877569,63.4424651 L66.4484985,62.7456452 C65.7609733,62.3763912 65.2215458,62.0392972 64.7244653,61.6447708 C61.3505893,58.967864 59.9458584,53.9461157 60.8100227,50.6816689 Z" id="Stroke-9" fill="#333333" fill-rule="nonzero"></path>
            <path d="M66.6228382,28.931891 C66.8404712,28.2767367 67.5480051,27.9220556 68.2031594,28.1396886 L68.7841594,28.3326886 C69.4393138,28.5503216 69.7939949,29.2578556 69.5763618,29.9130099 C69.3587288,30.5681642 68.6511949,30.9228453 67.9960406,30.7052123 L67.4150406,30.5122123 C66.7598862,30.2945793 66.4052051,29.5870453 66.6228382,28.931891 Z" id="Stroke-11" fill="#333333" fill-rule="nonzero"></path>
            <path d="M55.7658418,28.1195293 L55.7700915,28.1100956 C54.679883,31.4704711 52.6810067,33.0495051 49.7781094,33.0556672 L49.2196362,33.0507082 C47.7792089,33.0152849 46.8824457,32.7607768 42.5422384,31.3090315 L41.5326399,30.9707426 C36.3841636,29.2436176 33.088815,28.644914 29.4960711,29.2063655 C18.667814,30.8982807 13.2365064,35.3698266 9.70386396,44.0466069 C8.19884472,47.744078 7.88646277,51.7004283 8.75114905,55.2798274 C8.91325738,55.9508804 8.50067615,56.6262912 7.82962309,56.7883995 C7.15857002,56.9505078 6.48315927,56.5379266 6.32105095,55.8668735 C5.33250287,51.7747443 5.68711092,47.2835959 7.38837539,43.1039974 C11.2451581,33.6310725 17.3967085,28.5665573 29.1101003,26.7363399 C33.0662222,26.1181019 36.584913,26.7128163 41.7838499,28.4199854 L44.7376793,29.404249 C47.2715066,30.2392646 48.1575483,30.4758295 49.0484161,30.5365466 L49.2225351,30.5462686 C49.3392592,30.5514203 49.4578765,30.5540675 49.5820107,30.5551367 L49.7728027,30.5556728 C51.5527447,30.5518945 52.6242268,29.7054656 53.3751452,27.3954537 L53.4032799,27.3030132 C53.8431032,25.9611664 53.5451676,24.5641975 52.6178671,23.6518188 C49.3018439,20.3924674 46.6894898,17.1239848 45.480733,14.1605809 C42.6056945,7.11428611 43.6478527,1.37413018 48.2192817,-0.648736517 C52.8453501,-2.69578125 58.0108977,0.473837575 61.0381122,7.31536321 C63.1311911,12.0435749 63.6688593,17.8439833 63.1770779,23.9595455 C63.1217417,24.6476801 62.5190396,25.1606645 61.830905,25.1053284 C61.1427704,25.0499922 60.6297859,24.4472901 60.6851221,23.7591555 C61.1465351,18.0212398 60.6441488,12.6014551 58.7520022,8.32714439 C56.2205984,2.60615442 52.374724,0.246296976 49.2309183,1.63743742 C46.1449563,3.00298194 45.369968,7.27157988 47.7955183,13.2162456 C48.8411796,15.7798024 51.2807373,18.8320885 54.3707852,21.8693269 C55.9959072,23.4682975 56.5064421,25.8621075 55.7658418,28.1195293 Z" id="Stroke-13" fill="#333333" fill-rule="nonzero"></path>
            <path d="M51.1378697,3.93272826 C50.8446769,3.95253704 50.5617636,4.02570427 50.2852539,4.14691401 C48.0972883,5.11437478 47.9894971,8.61344272 49.7280943,12.5407524 C51.0583401,15.5453217 53.4597565,18.4035763 56.5278472,21.0545823 C57.3268181,21.7449389 58.5688472,21.1949776 58.5947246,20.1393844 C58.6942327,16.0802295 58.1941057,12.384687 56.8651597,9.38187051 C55.3409987,5.93732829 53.1160056,3.79594227 51.1378697,3.93272826 Z M51.3103303,6.42677264 L51.3825998,6.42759093 L51.4609217,6.43955272 C52.1650179,6.59127345 53.5151432,7.98926607 54.5790062,10.3935533 L54.7390784,10.7710089 C55.4640258,12.5558326 55.8812708,14.6650691 56.03656,16.9860986 L56.0471366,17.1767492 L55.9151534,17.0426755 C54.1869785,15.2482107 52.8390576,13.3920322 52.0140859,11.5287038 C51.3156485,9.9510066 50.9941995,8.55663516 51.0262573,7.5159893 C51.0478929,6.81366401 51.2098015,6.47158983 51.2926074,6.43497495 L51.3103303,6.42677264 Z" id="Stroke-15" fill="#9C76DE" fill-rule="nonzero"></path>
            <path d="M66.5951,18.2111505 C67.2951,15.5711505 67.7661,12.5811505 67.5291,9.67915045 C67.0421,3.69415045 64.3151,0.582150453 61.2831,0.829150453" id="Stroke-17"></path>
        </g>
    </g>
</svg>