<?xml version="1.0" encoding="UTF-8"?>
<svg width="120px" height="120px" viewBox="0 0 120 120" version="1.1" xmlns="http://www.w3.org/2000/svg" xmlns:xlink="http://www.w3.org/1999/xlink">
    <title>6</title>
    <g id="6" stroke="none" stroke-width="1" fill="none" fill-rule="evenodd">
        <g id="编组-11" transform="translate(33.000000, 29.000000)" fill-rule="nonzero">
            <path d="M53.225528,12.3114043 C53.5987118,11.8331663 54.2408635,11.7908147 54.6598139,12.2168095 C55.0787643,12.6428042 55.1158655,13.3758297 54.7426817,13.8540677 L43.5269908,28.2270657 C43.1384852,28.7249387 42.463091,28.7471922 42.050075,28.2757283 L38.5584153,24.289948 C38.1616877,23.8370776 38.1616877,23.1028297 38.5584153,22.6499593 C38.9551429,22.1970889 39.5983655,22.1970889 39.9950931,22.6499593 L42.7256595,25.7669829 L53.225528,12.3114043 Z" id="Stroke-1" fill="#9C76DE"></path>
            <path d="M41.5112599,12.0225945 C43.549877,11.7598446 45.5828423,12.0210608 47.4527729,12.7626611 C48.0105889,12.9838867 48.2829459,13.614159 48.0610994,14.1704136 C47.8392529,14.7266683 47.2072117,14.9982631 46.6493957,14.7770375 C45.1205704,14.170717 43.4597982,13.9573239 41.7899072,14.1725501 C36.4323859,14.8630104 32.6504963,19.7536074 33.3428754,25.0961356 C34.0351019,30.438646 38.9394461,34.2099664 44.2969193,33.5196622 C49.6545172,32.8292114 53.4363532,27.9386836 52.7441143,22.5960772 C52.6671893,22.0023806 53.0874663,21.4589089 53.6828292,21.3821992 C54.2781921,21.3054896 54.8231892,21.7245903 54.9001142,22.3182869 C55.7462001,28.848264 51.1238444,34.8257202 44.5755229,35.6696234 C38.0273064,36.5133535 32.0329537,31.9038434 31.1868793,25.3739555 C30.3406197,18.8440554 34.9630464,12.8665074 41.5112599,12.0225945 Z" id="Stroke-3" fill="#9C76DE"></path>
            <path d="M30.0706522,4.76923077 C30.8300437,4.76923077 31.4456522,5.34859486 31.4456522,6.06327668 L31.4456522,20.1674926 C31.4456522,20.8821744 30.8300437,21.4615385 30.0706522,21.4615385 C29.3112606,21.4615385 28.6956522,20.8821744 28.6956522,20.1674926 L28.6956522,6.06327668 C28.6956522,5.34859486 29.3112606,4.76923077 30.0706522,4.76923077 Z" id="Stroke-5" fill="#454545"></path>
            <path d="M23.6508421,9.53846154 C24.3594639,9.53846154 24.9339153,10.111343 24.9339153,10.818028 L24.9339153,21.4152895 L2.76135994,57.492744 C2.23734292,58.3453101 2.85248511,59.440867 3.85519307,59.440867 L51.1447334,59.440867 C52.1474415,59.440867 52.7626492,58.3452566 52.2387434,57.4927112 L41.9871647,40.8124549 C41.6168612,40.2099372 41.8064466,39.4221302 42.4106155,39.0528387 C43.0147845,38.6835473 43.8047505,38.8726145 44.175054,39.4751322 L54.4266687,56.1554471 C55.9984783,58.7132333 54.1528915,62 51.1447334,62 L3.85519307,62 C0.846963828,62 -0.998580454,58.7131195 0.573485206,56.1553976 L22.3676672,20.6933215 L22.3677689,10.818028 C22.3677689,10.1267057 22.9175157,9.56343266 23.6048224,9.53926924 L23.6508421,9.53846154 Z" id="Stroke-7" fill="#454545"></path>
            <path d="M31.7701414,0 C34.0342814,0 35.8695652,1.60144881 35.8695652,3.57692308 C35.8695652,5.55239735 34.0342814,7.15384615 31.7701414,7.15384615 L30.4037717,7.15384615 C29.6490886,7.15384615 29.0372971,6.62003182 29.0372971,5.96153846 C29.0372971,5.30304511 29.6490886,4.76923077 30.4037717,4.76923077 L31.7701414,4.76923077 C32.5248827,4.76923077 33.136616,4.23543895 33.136616,3.57692308 C33.136616,2.9184072 32.5248827,2.38461538 31.7701414,2.38461538 L20.8385543,2.38461538 C20.0839341,2.38461538 19.4720797,2.91848461 19.4720797,3.57692308 C19.4720797,4.23536154 20.0839341,4.76923077 20.8385543,4.76923077 L24.9378732,4.76923077 C25.6925563,4.76923077 26.3043478,5.30304511 26.3043478,5.96153846 C26.3043478,6.62003182 25.6925563,7.15384615 24.9378732,7.15384615 L20.8385543,7.15384615 C18.5745679,7.15384615 16.7391304,5.55234825 16.7391304,3.57692308 C16.7391304,1.6014979 18.5745679,0 20.8385543,0 L31.7701414,0 Z" id="Stroke-9" fill="#454545"></path>
            <polygon id="Stroke-11" fill="#454545" points="17.0978261 47.6923077 17.0978261 54.8461538 14.3478261 54.8461538 14.3478261 47.6923077"></polygon>
            <polygon id="Stroke-13" fill="#454545" points="21.8804348 45.3076923 21.8804348 54.8461538 19.1304348 54.8461538 19.1304348 45.3076923"></polygon>
            <polygon id="Stroke-15" fill="#454545" points="26.6630435 35.7692308 26.6630435 54.8461538 23.9130435 54.8461538 23.9130435 35.7692308"></polygon>
            <polygon id="Stroke-17" fill="#454545" points="31.4456522 45.3076923 31.4456522 54.8461538 28.6956522 54.8461538 28.6956522 45.3076923"></polygon>
            <polygon id="Stroke-19" fill="#454545" points="36.2282609 40.5384615 36.2282609 54.8461538 33.4782609 54.8461538 33.4782609 40.5384615"></polygon>
            <polygon id="Stroke-21" fill="#454545" points="41.0108696 45.3076923 41.0108696 54.8461538 38.2608696 54.8461538 38.2608696 45.3076923"></polygon>
        </g>
    </g>
</svg>