<?xml version="1.0" encoding="UTF-8"?>
<svg width="120px" height="120px" viewBox="0 0 120 120" version="1.1" xmlns="http://www.w3.org/2000/svg" xmlns:xlink="http://www.w3.org/1999/xlink">
    <title>1</title>
    <defs>
        <polygon id="path-1" points="1.77635684e-15 0 34.0471967 0 34.0471967 24.3184 1.77635684e-15 24.3184"></polygon>
    </defs>
    <g id="1" stroke="none" stroke-width="1" fill="none" fill-rule="evenodd">
        <g id="编组-2" transform="translate(29.000000, 19.000000)">
            <path d="M32.7654,56.1581 C33.9974,47.1631 39.1354,33.7691 51.5224,25.2931" id="Stroke-1" stroke="#9C76DE" stroke-width="2.5" stroke-linecap="round" stroke-linejoin="round"></path>
            <path d="M12.2037,34.8574 C24.0427,40.1844 28.3907,49.2584 30.7137,56.1464" id="Stroke-3" stroke="#9C76DE" stroke-width="2.5" stroke-linecap="round" stroke-linejoin="round"></path>
            <path d="M39.4506,40.4933 C36.2396,37.8663 35.1696,33.6323 36.4946,29.7373 C37.8896,25.6313 41.3856,22.6383 45.1806,20.7773 C50.0076,18.4103 55.7026,17.3413 61.0696,17.3723 C59.8606,20.1633 59.6066,23.3143 59.0646,26.2783 C58.4186,29.8053 57.4916,33.3303 55.5266,36.3753 C52.0606,41.7463 44.9986,45.0313 39.4506,40.4933 Z" id="Stroke-5" stroke="#9C76DE" stroke-width="2.5" stroke-linecap="round" stroke-linejoin="round"></path>
            <path d="M26.115,46.4841 C28.681,43.2241 28.807,38.8581 26.671,35.3431 C24.418,31.6371 20.358,29.4721 16.249,28.4781 C11.025,27.2131 5.233,27.4031 0,28.5971 C1.785,31.0601 2.716,34.0811 3.887,36.8561 C5.282,40.1601 6.95,43.4001 9.528,45.9471 C14.076,50.4391 21.682,52.1161 26.115,46.4841 Z" id="Stroke-7" stroke="#9C76DE" stroke-width="2.5" stroke-linecap="round" stroke-linejoin="round"></path>
            <path d="M23.5194,57.1283 C23.5194,57.1283 30.4634,54.8983 40.1304,57.1283" id="Stroke-9" stroke="#9C76DE" stroke-width="2.5" stroke-linecap="round" stroke-linejoin="round"></path>
            <path d="M50.9157,57.3028 C49.9377,62.8068 46.5407,67.4858 41.8677,70.1958" id="Stroke-11" stroke="#9C76DE" stroke-width="2.5" stroke-linecap="round" stroke-linejoin="round"></path>
            <line x1="51.0001" y1="51.1374" x2="50.9081" y2="49.2374" id="Stroke-13" stroke="#9C76DE" stroke-width="2.5" stroke-linecap="round" stroke-linejoin="round"></line>
            <path d="M31.8248,82.5 C15.8328,82.5 2.8228,69.49 2.8228,53.498 C2.8228,51.591 2.9378,49.645 3.1648,47.712 C3.2448,47.025 3.8668,46.533 4.5518,46.616 C5.2368,46.696 5.7278,47.317 5.6468,48.003 C5.4318,49.839 5.3228,51.688 5.3228,53.498 C5.3228,68.111 17.2118,80 31.8248,80 C46.4378,80 58.3268,68.111 58.3268,53.498 C58.3268,49.688 57.8458,45.779 56.8948,41.88 C56.7318,41.209 57.1428,40.533 57.8138,40.369 C58.4888,40.211 59.1608,40.618 59.3248,41.288 C60.3208,45.382 60.8268,49.489 60.8268,53.498 C60.8268,69.49 47.8168,82.5 31.8248,82.5" id="Fill-15" fill="#333333"></path>
            <g id="编组" transform="translate(12.148876, 0.000000)">
                <mask id="mask-2" fill="white">
                    <use xlink:href="#path-1"></use>
                </mask>
                <g id="Clip-18"></g>
                <path d="M1.24922433,24.3184 C1.02822433,24.3184 0.806224327,24.2604 0.603224327,24.1384 C0.0132243273,23.7814 -0.176775673,23.0124 0.180224327,22.4224 C8.26022433,9.0514 18.4542243,0.6344 18.8852243,0.2824 C19.3442243,-0.0946 20.0072243,-0.0946 20.4682243,0.2824 C20.7352243,0.5024 27.1022243,5.7484 33.7912243,14.5324 C34.2102243,15.0824 34.1032243,15.8664 33.5552243,16.2844 C33.0042243,16.7054 32.2222243,16.5954 31.8032243,16.0474 C26.6452243,9.2764 21.5822243,4.5784 19.6762243,2.8984 C17.1232243,5.1514 8.89522433,12.8344 2.32022433,23.7144 C2.08522433,24.1034 1.67222433,24.3184 1.24922433,24.3184" id="Fill-17" fill="#141414" mask="url(#mask-2)"></path>
            </g>
        </g>
    </g>
</svg>