<?xml version="1.0" encoding="UTF-8"?>
<svg width="120px" height="120px" viewBox="0 0 120 120" version="1.1" xmlns="http://www.w3.org/2000/svg" xmlns:xlink="http://www.w3.org/1999/xlink">
    <title>3</title>
    <defs>
        <polygon id="path-1" points="0 0 22.8099223 0 22.8099223 69.2767824 0 69.2767824"></polygon>
    </defs>
    <g id="3" stroke="none" stroke-width="1" fill="none" fill-rule="evenodd">
        <polygon id="Stroke-1" fill="#454545" fill-rule="nonzero" points="61.25 19 61.25 29 58.75 29 58.75 19"></polygon>
        <polygon id="Stroke-2" fill="#454545" fill-rule="nonzero" points="65 22.75 65 25.25 55 25.25 55 22.75"></polygon>
        <path d="M96,64.2642808 C96.6903559,64.2642808 97.25,64.8239248 97.25,65.5142808 C97.25,66.2046367 96.6903559,66.7642808 96,66.7642808 L83.3778435,66.7642808 C82.6874875,66.7642808 82.1278435,66.2046367 82.1278435,65.5142808 C82.1278435,64.8239248 82.6874875,64.2642808 83.3778435,64.2642808 L96,64.2642808 Z" id="Stroke-3" fill="#454545" fill-rule="nonzero"></path>
        <path d="M73.9111413,64.2643291 C74.6014972,64.2643291 75.1611413,64.8239732 75.1611413,65.5143291 C75.1611413,66.2046851 74.6014972,66.7643291 73.9111413,66.7643291 L70.6401844,66.7643291 C69.0518613,66.7643291 67.6692669,67.827166 67.2687347,69.3547024 C66.0319481,74.0730169 65.6231194,79.1488768 66.3085537,87.202764 C66.7461239,92.3455277 63.3711921,97.1219305 58.4238313,98.0695607 C52.659532,99.1738532 47.24542,95.0702557 46.734396,89.2909985 C46.6251576,88.0563065 46.8360717,86.1977225 47.3194394,83.702578 C47.4507364,83.0248226 48.106603,82.5818306 48.7843585,82.7131276 C49.4621139,82.8444246 49.9051059,83.5002913 49.7738089,84.1780467 L49.6360545,84.9148702 C49.2936198,86.8196636 49.1511377,88.2395744 49.224674,89.0707359 C49.6054982,93.377542 53.6453572,96.4395317 57.9534868,95.614204 C61.607307,94.914342 64.1495311,91.3164363 63.8175564,87.4147362 C63.1083219,79.081197 63.5401817,73.7193929 64.8504592,68.720712 C65.5397421,66.0919483 67.9172056,64.2643291 70.6401844,64.2643291 L73.9111413,64.2643291 Z" id="Stroke-5" fill="#454545" fill-rule="nonzero"></path>
        <path d="M47.0669021,64.2642808 C51.0155157,64.2642808 53.8819503,68.0114572 52.8376264,71.8143324 L52.7073052,72.2969503 L52.5959462,72.7283428 L52.3003605,73.9051248 C52.2678922,74.0301261 52.2329184,74.1626051 52.1869655,74.3355878 C52.0097197,75.0028023 51.3251494,75.4000005 50.6579348,75.2227548 C49.9907203,75.045509 49.5935221,74.3609387 49.7707678,73.6937241 L49.975284,72.9055312 L50.2305041,71.8870616 C50.2886266,71.6618293 50.3486782,71.4371152 50.4268585,71.1523671 C51.0336634,68.9427047 49.3672595,66.7642808 47.0669021,66.7642808 L25,66.7642808 C24.3096441,66.7642808 23.75,66.2046367 23.75,65.5142808 C23.75,64.8239248 24.3096441,64.2642808 25,64.2642808 L47.0669021,64.2642808 Z" id="Stroke-7" fill="#454545" fill-rule="nonzero"></path>
        <g id="编组" transform="translate(52.682920, 23.000000)">
            <mask id="mask-2" fill="white">
                <use xlink:href="#path-1"></use>
            </mask>
            <g id="Clip-10"></g>
            <path d="M21.8663696,0.133286115 C21.0685635,-0.216372307 20.1377088,0.145618466 19.7872751,0.94141782 C14.9880783,11.8429743 8.07488907,30.2496126 4.52232504,47.045791 C3.20008004,51.5340414 -0.218708468,63.1644156 0.0110364464,65.7658162 C0.198370644,67.8833534 2.07050088,69.4483529 4.19273318,69.261675 C6.31496547,69.0749971 7.88367732,67.2067668 7.69634312,65.0894714 C6.86921296,55.7359877 7.23176401,50.4393639 7.56862628,47.8923707 C11.0586648,31.2403115 17.7355658,13.4299786 22.6692651,2.22398232 L22.6762932,2.207781 C23.0267269,1.41173983 22.6641758,0.482944537 21.8663696,0.133286115" id="Fill-9" fill="#454545" mask="url(#mask-2)"></path>
        </g>
        <path d="M51.2694407,79.0508737 C51.2694407,79.9204254 50.5629993,80.6250621 49.691762,80.6250621 C48.8202823,80.6250621 48.1138409,79.9204254 48.1138409,79.0508737 C48.1138409,78.1813221 48.8202823,77.4766854 49.691762,77.4766854 C50.5629993,77.4766854 51.2694407,78.1813221 51.2694407,79.0508737" id="Fill-11" fill="#454545"></path>
        <path d="M36.0444536,78.1086096 C36.0444536,78.9781612 35.3380122,79.6827979 34.4667749,79.6827979 C33.5952953,79.6827979 32.8888539,78.9781612 32.8888539,78.1086096 C32.8888539,77.2390579 33.5952953,76.5344212 34.4667749,76.5344212 C35.3380122,76.5344212 36.0444536,77.2390579 36.0444536,78.1086096" id="Fill-13" fill="#454545"></path>
        <path d="M36.0444536,90.7029142 C36.0444536,91.5724658 35.3380122,92.2771025 34.4667749,92.2771025 C33.5952953,92.2771025 32.8888539,91.5724658 32.8888539,90.7029142 C32.8888539,89.8333625 33.5952953,89.1287259 34.4667749,89.1287259 C35.3380122,89.1287259 36.0444536,89.8333625 36.0444536,90.7029142" id="Fill-15" fill="#454545"></path>
        <path d="M42.3555803,84.4057498 C42.3555803,85.2753014 41.649139,85.9799381 40.7779016,85.9799381 C39.906422,85.9799381 39.1999806,85.2753014 39.1999806,84.4057498 C39.1999806,83.5361981 39.906422,82.8315615 40.7779016,82.8315615 C41.649139,82.8315615 42.3555803,83.5361981 42.3555803,84.4057498" id="Fill-17" fill="#454545"></path>
        <path d="M29.7333511,71.8114452 C29.7333511,72.6809968 29.0269097,73.3856335 28.1556724,73.3856335 C27.2841928,73.3856335 26.5777514,72.6809968 26.5777514,71.8114452 C26.5777514,70.9418935 27.2841928,70.2372568 28.1556724,70.2372568 C29.0269097,70.2372568 29.7333511,70.9418935 29.7333511,71.8114452" id="Fill-19" fill="#454545"></path>
        <path d="M29.7333511,84.4057498 C29.7333511,85.2753014 29.0269097,85.9799381 28.1556724,85.9799381 C27.2841928,85.9799381 26.5777514,85.2753014 26.5777514,84.4057498 C26.5777514,83.5361981 27.2841928,82.8315615 28.1556724,82.8315615 C29.0269097,82.8315615 29.7333511,83.5361981 29.7333511,84.4057498" id="Fill-21" fill="#454545"></path>
        <path d="M86.533419,71.8114452 C86.533419,72.6809968 85.8269776,73.3856335 84.9557403,73.3856335 C84.0842606,73.3856335 83.3778192,72.6809968 83.3778192,71.8114452 C83.3778192,70.9418935 84.0842606,70.2372568 84.9557403,70.2372568 C85.8269776,70.2372568 86.533419,70.9418935 86.533419,71.8114452" id="Fill-23" fill="#454545"></path>
        <path d="M80.0696621,65.5142808 C80.0696621,66.3838324 79.3632207,67.0884691 78.4919834,67.0884691 C77.6205038,67.0884691 76.9140624,66.3838324 76.9140624,65.5142808 C76.9140624,64.6447291 77.6205038,63.9400924 78.4919834,63.9400924 C79.3632207,63.9400924 80.0696621,64.6447291 80.0696621,65.5142808" id="Fill-25" fill="#454545"></path>
        <path d="M80.2222922,78.1086096 C80.2222922,78.9781612 79.5158509,79.6827979 78.6446135,79.6827979 C77.7731339,79.6827979 77.0666925,78.9781612 77.0666925,78.1086096 C77.0666925,77.2390579 77.7731339,76.5344212 78.6446135,76.5344212 C79.5158509,76.5344212 80.2222922,77.2390579 80.2222922,78.1086096" id="Fill-27" fill="#454545"></path>
        <path d="M80.2222922,90.7029142 C80.2222922,91.5724658 79.5158509,92.2771025 78.6446135,92.2771025 C77.7731339,92.2771025 77.0666925,91.5724658 77.0666925,90.7029142 C77.0666925,89.8333625 77.7731339,89.1287259 78.6446135,89.1287259 C79.5158509,89.1287259 80.2222922,89.8333625 80.2222922,90.7029142" id="Fill-29" fill="#454545"></path>
        <path d="M92.8445215,78.1086096 C92.8445215,78.9781612 92.1380801,79.6827979 91.2668428,79.6827979 C90.3953631,79.6827979 89.6889217,78.9781612 89.6889217,78.1086096 C89.6889217,77.2390579 90.3953631,76.5344212 91.2668428,76.5344212 C92.1380801,76.5344212 92.8445215,77.2390579 92.8445215,78.1086096" id="Fill-31" fill="#454545"></path>
        <path d="M86.533419,84.4057498 C86.533419,85.2753014 85.8269776,85.9799381 84.9557403,85.9799381 C84.0842606,85.9799381 83.3778192,85.2753014 83.3778192,84.4057498 C83.3778192,83.5361981 84.0842606,82.8315615 84.9557403,82.8315615 C85.8269776,82.8315615 86.533419,83.5361981 86.533419,84.4057498" id="Fill-33" fill="#454545"></path>
        <path d="M73.9111655,71.8114452 C73.9111655,72.6809968 73.2047241,73.3856335 72.3334868,73.3856335 C71.4620072,73.3856335 70.7555658,72.6809968 70.7555658,71.8114452 C70.7555658,70.9418935 71.4620072,70.2372568 72.3334868,70.2372568 C73.2047241,70.2372568 73.9111655,70.9418935 73.9111655,71.8114452" id="Fill-35" fill="#454545"></path>
        <path d="M73.9111655,84.4057498 C73.9111655,85.2753014 73.2047241,85.9799381 72.3334868,85.9799381 C71.4620072,85.9799381 70.7555658,85.2753014 70.7555658,84.4057498 C70.7555658,83.5361981 71.4620072,82.8315615 72.3334868,82.8315615 C73.2047241,82.8315615 73.9111655,83.5361981 73.9111655,84.4057498" id="Fill-37" fill="#454545"></path>
        <path d="M42.3555803,71.8114452 C42.3555803,72.6809968 41.649139,73.3856335 40.7779016,73.3856335 C39.906422,73.3856335 39.1999806,72.6809968 39.1999806,71.8114452 C39.1999806,70.9418935 39.906422,70.2372568 40.7779016,70.2372568 C41.649139,70.2372568 42.3555803,70.9418935 42.3555803,71.8114452" id="Fill-39" fill="#454545"></path>
        <path d="M53.7810426,30.180003 C54.24079,29.6650043 55.0309778,29.6202143 55.5459765,30.0799617 C56.0609752,30.5397091 56.1057652,31.329897 55.6460178,31.8448956 L41.7091291,47.4566847 C41.2312288,47.9920178 40.4017288,48.0159678 39.8937373,47.5091002 L35.5547574,43.1797195 C35.0660618,42.6921051 35.0651853,41.9006493 35.5527998,41.4119537 C36.0404143,40.923258 36.83187,40.9223816 37.3205657,41.4099961 L40.7236615,44.8054493 L53.7810426,30.180003 Z" id="Stroke-41" fill="#9C76DE" fill-rule="nonzero"></path>
        <path d="M40.5767609,28.1712143 C42.941251,27.8661153 45.299812,28.1693483 47.4693853,29.0300841 C48.1110857,29.2846661 48.424907,30.0112465 48.170325,30.6529468 C47.915743,31.2946472 47.1891625,31.6084685 46.5474622,31.3538865 C44.7694328,30.6484881 42.8379794,30.400167 40.8965548,30.6506763 C34.6673216,31.4537524 30.2710815,37.1420477 31.075605,43.3547083 C31.8804244,49.5681862 37.5821627,53.9553395 43.8119403,53.1521932 C50.0411064,52.3488797 54.437205,46.6606801 53.6326904,40.4478703 C53.5440345,39.7632307 54.0271747,39.1363507 54.7118143,39.0476948 C55.396454,38.9590388 56.0233339,39.4421791 56.1119899,40.1268187 C57.0940374,47.7106141 51.729542,54.6518416 44.1316444,55.6316668 C36.5341913,56.6111346 29.5785726,51.2591938 28.5963118,43.6758083 C27.6142405,36.0920944 32.9789227,29.1507317 40.5767609,28.1712143 Z" id="Stroke-43" fill="#9C76DE" fill-rule="nonzero"></path>
    </g>
</svg>