<?xml version="1.0" encoding="UTF-8"?>
<svg width="120px" height="120px" viewBox="0 0 120 120" version="1.1" xmlns="http://www.w3.org/2000/svg" xmlns:xlink="http://www.w3.org/1999/xlink">
    <title>5</title>
    <g id="5" stroke="none" stroke-width="1" fill="none" fill-rule="evenodd">
        <g id="编组" transform="translate(30.000000, 25.000000)">
            <path d="M27.640625,24.3046875 C27.640625,25.0944196 27.0004992,25.734375 26.2110473,25.734375 C25.4213758,25.734375 24.78125,25.0944196 24.78125,24.3046875 C24.78125,23.5149554 25.4213758,22.875 26.2110473,22.875 C27.0004992,22.875 27.640625,23.5149554 27.640625,24.3046875" id="Fill-1" fill="#9C76DE"></path>
            <path d="M1.25,20.1586881 C1.25,29.3959319 8.59291573,36.875 17.6392448,36.875 C18.3296008,36.875 18.8892448,37.4346441 18.8892448,38.125 C18.8892448,38.8153559 18.3296008,39.375 17.6392448,39.375 C7.20181876,39.375 -1.25,30.7664675 -1.25,20.1586881 L-1.25,10.484375 C-1.25,9.79401906 -0.690355937,9.234375 0,9.234375 L9.49796582,9.234375 C16.3276762,9.234375 22.5184382,12.9531315 25.8684416,18.8573965 C26.2091232,19.4578359 25.9985478,20.2207651 25.3981084,20.5614466 C24.7976691,20.9021281 24.0347399,20.6915528 23.6940584,20.0911134 C20.7818863,14.958511 15.4145388,11.734375 9.49796582,11.734375 L1.25,11.734375 L1.25,20.1586881 Z" id="Stroke-11" fill="#9C76DE" fill-rule="nonzero"></path>
            <path d="M5.57525134,16.5563195 C5.90658379,15.950671 6.66615694,15.7282939 7.27180546,16.0596263 C13.9642667,19.7208745 19.4330833,25.1896683 23.020892,31.8107153 C23.3497968,32.4176857 23.12438,33.1763623 22.5174097,33.505267 C21.9104393,33.8341718 21.1517627,33.608755 20.822858,33.0017847 C17.4651973,26.8054597 12.3436611,21.6839448 6.07194454,18.2528737 C5.46629602,17.9215412 5.2439189,17.1619681 5.57525134,16.5563195 Z" id="Stroke-13" fill="#9C76DE" fill-rule="nonzero"></path>
            <path d="M51.46875,-1.25 C52.1591059,-1.25 52.71875,-0.690355937 52.71875,-2.22044605e-16 L52.71875,9.68721161 C52.71875,11.873035 52.3542203,14.0104631 51.6486837,16.0329869 C50.4276345,19.534068 47.8295864,21.8670938 42.476443,25.3522407 C41.8978954,25.7289023 41.1235453,25.5652413 40.7468837,24.9866936 C40.3702221,24.408146 40.5338831,23.6337959 41.1124307,23.2571343 L41.9026673,22.7371703 C46.2487174,19.844571 48.3714491,17.8380834 49.2881571,15.2096315 C49.901683,13.45087 50.21875,11.5917402 50.21875,9.68721161 L50.218125,1.25 L41.7944369,1.25 C32.6700074,1.25 25.2524202,8.57141593 25.0811519,17.6688889 L25.078125,17.9907046 C25.078125,18.6810605 24.5184809,19.2407046 23.828125,19.2407046 C23.1377691,19.2407046 22.578125,18.6810605 22.578125,17.9907046 C22.578125,7.36474475 31.1811894,-1.25 41.7944369,-1.25 L51.46875,-1.25 Z" id="Stroke-15" fill="#9C76DE" fill-rule="nonzero"></path>
            <path d="M45.2191946,5.54017469 C45.8442154,5.24701894 46.5885446,5.51604874 46.8817003,6.14106956 C47.1748561,6.76609038 46.9058263,7.51041955 46.2808054,7.80357531 C39.804193,10.841324 34.3617315,15.6434744 30.6058782,21.6328374 C30.2391129,22.2177088 29.4676589,22.3945186 28.8827876,22.0277532 C28.2979162,21.6609879 28.1211064,20.8895339 28.4878718,20.3046626 C32.49953,13.9073738 38.3092562,8.7811678 45.2191946,5.54017469 Z" id="Stroke-17" fill="#9C76DE" fill-rule="nonzero"></path>
            <path d="M60.91312,19.7217729 L60.3555356,19.7670564 L59.4806317,19.8494808 C59.2699741,19.8705964 59.0486787,19.8936154 58.8171165,19.9186122 C57.1673825,20.0966991 55.330864,20.3382078 53.3538192,20.6525262 C47.7021227,21.5510554 42.0486236,22.8538088 36.7604327,24.6391382 C29.0940717,27.2273542 22.8480307,30.6145501 18.5222155,34.9403652 C15.424505,38.0380758 13.3592082,41.6677105 12.2151008,45.7081121 C10.5741083,51.5032572 10.9007821,57.6512185 12.4280704,63.5246855 C12.7098104,64.6081685 13.0121309,65.5918504 13.3153849,66.4589031 L13.505581,66.9874016 C13.6010873,67.2446054 13.6787092,67.4403028 13.7336767,67.5703507 C13.8603196,67.8699755 14.0987745,68.1084304 14.3983993,68.2350733 L14.83444,68.4080495 C14.9739013,68.4609465 15.1358032,68.5206254 15.3192507,68.5860557 L15.5098469,68.6533651 C16.3768996,68.9566191 17.3605815,69.2589396 18.4440645,69.5406796 C24.3175315,71.0679679 30.4654928,71.3946417 36.2606379,69.7536492 C40.3010395,68.6095418 43.9306742,66.544245 47.0283848,63.4465345 C51.3541999,59.1207193 54.7413958,52.8746783 57.3296118,45.2083173 C59.1149412,39.9201264 60.4176946,34.2666273 61.3162238,28.6149308 C61.5912524,26.8850166 61.810536,25.2626928 61.9803639,23.7789489 L62.0501378,23.1516335 C62.1001315,22.6885091 62.1422136,22.2664521 62.1769806,21.888429 L62.2469771,21.05563 C62.2997507,20.2981772 61.6705728,19.6689993 60.91312,19.7217729 Z M58.4732146,22.4722699 L59.619625,22.34775 L59.5645779,22.8833202 C59.3908229,24.4929243 59.1547326,26.2882397 58.847232,28.2224007 C57.9691354,33.7455778 56.6968279,39.2669523 54.9609578,44.4086435 C52.4851607,51.7420171 49.2717028,57.6676826 45.2606178,61.6787675 C42.4732622,64.4661232 39.2196535,66.3174575 35.5795023,67.3482274 C30.2753043,68.8502 24.553409,68.5461653 19.0732213,67.1211421 C18.2274398,66.901212 17.4485763,66.6685076 16.7468792,66.4342144 L16.163818,66.2330345 L15.849625,66.11875 L15.6752128,65.6335471 C15.3938351,64.8290424 15.111524,63.9104665 14.8476079,62.8955287 C13.4225847,57.415341 13.11855,51.6934457 14.6205226,46.3892477 C15.6512925,42.7490965 17.5026268,39.4954878 20.2899825,36.7081322 C24.3010674,32.6970472 30.2267329,29.4835893 37.5601065,27.0077922 C42.7017977,25.2719221 48.2231722,23.9996146 53.7463493,23.121518 C55.4387402,22.8524549 57.0248273,22.6380654 58.4732146,22.4722699 Z" id="Stroke-3" fill="#454545" fill-rule="nonzero"></path>
            <path d="M47.65625,45.4554688 C48.3466059,45.4554688 48.90625,46.0151128 48.90625,46.7054688 C48.90625,47.3958247 48.3466059,47.9554688 47.65625,47.9554688 L31.453125,47.9554688 C30.7627691,47.9554688 30.203125,47.3958247 30.203125,46.7054688 C30.203125,46.0151128 30.7627691,45.4554688 31.453125,45.4554688 L47.65625,45.4554688 Z" id="Stroke-5" fill="#454545" fill-rule="nonzero"></path>
            <path d="M24.7835937,39.734375 C25.4739497,39.734375 26.0335937,40.2940191 26.0335937,40.984375 L26.0335937,53.375 C26.0335937,54.0653559 25.4739497,54.625 24.7835937,54.625 C24.0932378,54.625 23.5335937,54.0653559 23.5335937,53.375 L23.5335937,40.984375 C23.5335937,40.2940191 24.0932378,39.734375 24.7835937,39.734375 Z" id="Stroke-7" fill="#454545" fill-rule="nonzero"></path>
            <path d="M49.8913225,30.3701908 C50.4894105,30.0253981 51.2537664,30.2307345 51.5985592,30.8288225 C51.9433519,31.4269105 51.7380155,32.1912664 51.1399275,32.5360592 C37.3821602,40.467297 22.4931207,55.5372333 13.4553847,70.2329431 C13.0937386,70.8209937 12.3238574,71.0045308 11.7358069,70.6428847 C11.1477563,70.2812386 10.9642192,69.5113574 11.3258653,68.9233069 C20.5731311,53.8868934 35.7570827,38.5184619 49.8913225,30.3701908 Z" id="Stroke-9" fill="#454545" fill-rule="nonzero"></path>
        </g>
    </g>
</svg>